<svg xmlns="http://www.w3.org/2000/svg" xmlns:xlink="http://www.w3.org/1999/xlink" contentStyleType="text/css" data-diagram-type="CLASS" height="1032px" preserveAspectRatio="none" style="width:1357px;height:1032px;background:#FFFFFF;" version="1.1" viewBox="0 0 1357 1032" width="1357px" zoomAndPan="magnify"><?plantuml 1.2026.4?><defs/><g><g class="title" data-source-line="1"><text fill="#000000" font-family="'Segoe UI'" font-size="14" font-weight="700" lengthAdjust="spacing" textLength="285.7695" x="532.4181" y="22.9951">FlatFlow &#8212; Data Model (logical / ER)</text></g><!--class User--><g class="entity" data-qualified-name="User" data-source-line="21" id="ent0001"><rect fill="#E8F0FE" height="123.7813" rx="5" ry="5" style="stroke:#3C6E91;stroke-width:0.5;" width="198.2861" x="7" y="440.1569"/><text fill="#000000" font-family="'Segoe UI'" font-size="14" lengthAdjust="spacing" textLength="31.9102" x="90.188" y="458.152">User</text><line style="stroke:#3C6E91;stroke-width:0.5;" x1="8" x2="204.2861" y1="466.4538" y2="466.4538"/><text fill="#000000" font-family="'Segoe UI'" font-size="14" lengthAdjust="spacing" textLength="51.9805" x="13" y="483.4489">id &#171;PK&#187;</text><line style="stroke:#3C6E91;stroke-width:1;" x1="8" x2="204.2861" y1="490.7506" y2="490.7506"/><text fill="#000000" font-family="'Segoe UI'" font-size="14" lengthAdjust="spacing" textLength="186.2861" x="13" y="507.7457">email : string [1] &#171;unique&#187;</text><text fill="#000000" font-family="'Segoe UI'" font-size="14" lengthAdjust="spacing" textLength="174.501" x="13" y="524.0426">display_name : string [1]</text><text fill="#000000" font-family="'Segoe UI'" font-size="14" lengthAdjust="spacing" textLength="185.418" x="13" y="540.3395">password_hash : string [1]</text><text fill="#000000" font-family="'Segoe UI'" font-size="14" lengthAdjust="spacing" textLength="182.3828" x="13" y="556.6364">date_joined : datetime [1]</text></g><!--class Household--><g class="entity" data-qualified-name="Household" data-source-line="30" id="ent0002"><rect fill="#E8F0FE" height="123.7813" rx="5" ry="5" style="stroke:#3C6E91;stroke-width:0.5;" width="239.4795" x="413.24" y="440.1569"/><text fill="#000000" font-family="'Segoe UI'" font-size="14" lengthAdjust="spacing" textLength="74.0879" x="495.9358" y="458.152">Household</text><line style="stroke:#3C6E91;stroke-width:0.5;" x1="414.24" x2="651.7195" y1="466.4538" y2="466.4538"/><text fill="#000000" font-family="'Segoe UI'" font-size="14" lengthAdjust="spacing" textLength="51.9805" x="419.24" y="483.4489">id &#171;PK&#187;</text><line style="stroke:#3C6E91;stroke-width:1;" x1="414.24" x2="651.7195" y1="490.7506" y2="490.7506"/><text fill="#000000" font-family="'Segoe UI'" font-size="14" lengthAdjust="spacing" textLength="117.79" x="419.24" y="507.7457">name : string [1]</text><text fill="#000000" font-family="'Segoe UI'" font-size="14" lengthAdjust="spacing" textLength="227.4795" x="419.24" y="524.0426">invite_code : string [1] &#171;unique&#187;</text><text fill="#000000" font-family="'Segoe UI'" font-size="14" lengthAdjust="spacing" textLength="175.7998" x="419.24" y="540.3395">created_at : datetime [1]</text><text fill="#000000" font-family="'Segoe UI'" font-size="14" lengthAdjust="spacing" textLength="140.9023" x="419.24" y="556.6364">created_by [1] &#171;FK&#187;</text></g><!--class Membership--><g class="entity" data-qualified-name="Membership" data-source-line="39" id="ent0003"><rect fill="#E8F0FE" height="107.4844" rx="5" ry="5" style="stroke:#3C6E91;stroke-width:0.5;" width="194.998" x="877.04" y="44.2969"/><text fill="#000000" font-family="'Segoe UI'" font-size="14" lengthAdjust="spacing" textLength="86.5293" x="931.2744" y="62.292">Membership</text><line style="stroke:#3C6E91;stroke-width:0.5;" x1="878.04" x2="1071.038" y1="70.5938" y2="70.5938"/><text fill="#000000" font-family="'Segoe UI'" font-size="14" lengthAdjust="spacing" textLength="51.9805" x="883.04" y="87.5889">id &#171;PK&#187;</text><line style="stroke:#3C6E91;stroke-width:1;" x1="878.04" x2="1071.038" y1="94.8906" y2="94.8906"/><text fill="#000000" font-family="'Segoe UI'" font-size="14" lengthAdjust="spacing" textLength="182.998" x="883.04" y="111.8857">user_id [1] &#171;FK&#187; &#171;unique&#187;</text><text fill="#000000" font-family="'Segoe UI'" font-size="14" lengthAdjust="spacing" textLength="155.3057" x="883.04" y="128.1826">household_id [1] &#171;FK&#187;</text><text fill="#000000" font-family="'Segoe UI'" font-size="14" lengthAdjust="spacing" textLength="164.8828" x="883.04" y="144.4795">joined_at : datetime [1]</text></g><!--class Chore--><g class="entity" data-qualified-name="Chore" data-source-line="48" id="ent0004"><rect fill="#FFF8E7" height="237.8594" rx="5" ry="5" style="stroke:#3C6E91;stroke-width:0.5;" width="226.252" x="861.41" y="200.1169"/><text fill="#000000" font-family="'Segoe UI'" font-size="14" lengthAdjust="spacing" textLength="41.583" x="953.7445" y="218.112">Chore</text><line style="stroke:#3C6E91;stroke-width:0.5;" x1="862.41" x2="1086.662" y1="226.4137" y2="226.4137"/><text fill="#000000" font-family="'Segoe UI'" font-size="14" lengthAdjust="spacing" textLength="51.9805" x="867.41" y="243.4089">id &#171;PK&#187;</text><line style="stroke:#3C6E91;stroke-width:1;" x1="862.41" x2="1086.662" y1="250.7106" y2="250.7106"/><text fill="#000000" font-family="'Segoe UI'" font-size="14" lengthAdjust="spacing" textLength="155.3057" x="867.41" y="267.7057">household_id [1] &#171;FK&#187;</text><text fill="#000000" font-family="'Segoe UI'" font-size="14" lengthAdjust="spacing" textLength="145.0928" x="867.41" y="284.0026">type : ChoreType [1]</text><text fill="#000000" font-family="'Segoe UI'" font-size="14" lengthAdjust="spacing" textLength="105.458" x="867.41" y="300.2995">title : string [1]</text><text fill="#000000" font-family="'Segoe UI'" font-size="14" lengthAdjust="spacing" textLength="161.4238" x="867.41" y="316.5964">description : text [0..1]</text><text fill="#000000" font-family="'Segoe UI'" font-size="14" lengthAdjust="spacing" textLength="167.1113" x="867.41" y="332.8932">status : ChoreStatus [1]</text><text fill="#000000" font-family="'Segoe UI'" font-size="14" lengthAdjust="spacing" textLength="175.7998" x="867.41" y="349.1901">created_at : datetime [1]</text><text fill="#000000" font-family="'Segoe UI'" font-size="14" lengthAdjust="spacing" textLength="180.3799" x="867.41" y="365.487">updated_at : datetime [1]</text><text fill="#000000" font-family="'Segoe UI'" font-size="14" lengthAdjust="spacing" textLength="214.252" x="867.41" y="381.7839">completed_at : datetime [0..1]</text><text fill="#000000" font-family="'Segoe UI'" font-size="14" lengthAdjust="spacing" textLength="140.9023" x="867.41" y="398.0807">created_by [1] &#171;FK&#187;</text><text fill="#000000" font-family="'Segoe UI'" font-size="14" lengthAdjust="spacing" textLength="142.9463" x="867.41" y="414.3776">assignee [0..1] &#171;FK&#187;</text><text fill="#000000" font-family="'Segoe UI'" font-size="14" lengthAdjust="spacing" textLength="179.3545" x="867.41" y="430.6745">completed_by [0..1] &#171;FK&#187;</text></g><!--class Task--><g class="entity" data-qualified-name="Task" data-source-line="64" id="ent0005"><rect fill="#FFF8E7" height="58.5938" rx="5" ry="5" style="stroke:#3C6E91;stroke-width:0.5;" width="164.2158" x="1178.39" y="416.7469"/><text fill="#000000" font-family="'Segoe UI'" font-size="14" lengthAdjust="spacing" textLength="32.5322" x="1244.2318" y="434.742">Task</text><line style="stroke:#3C6E91;stroke-width:0.5;" x1="1179.39" x2="1341.6058" y1="443.0437" y2="443.0437"/><text fill="#000000" font-family="'Segoe UI'" font-size="14" lengthAdjust="spacing" textLength="152.2158" x="1184.39" y="460.0389">due_date : date [0..1]</text><line style="stroke:#3C6E91;stroke-width:0.5;" x1="1179.39" x2="1341.6058" y1="467.3406" y2="467.3406"/></g><!--class Duty--><g class="entity" data-qualified-name="Duty" data-source-line="68" id="ent0006"><rect fill="#FFF8E7" height="74.8906" rx="5" ry="5" style="stroke:#3C6E91;stroke-width:0.5;" width="152.6426" x="1184.18" y="47.5969"/><text fill="#000000" font-family="'Segoe UI'" font-size="14" lengthAdjust="spacing" textLength="33.4277" x="1243.7874" y="65.592">Duty</text><line style="stroke:#3C6E91;stroke-width:0.5;" x1="1185.18" x2="1335.8226" y1="73.8937" y2="73.8937"/><text fill="#000000" font-family="'Segoe UI'" font-size="14" lengthAdjust="spacing" textLength="140.6426" x="1190.18" y="90.8889">start_date : date [1]</text><text fill="#000000" font-family="'Segoe UI'" font-size="14" lengthAdjust="spacing" textLength="134.4082" x="1190.18" y="107.1857">end_date : date [1]</text><line style="stroke:#3C6E91;stroke-width:0.5;" x1="1185.18" x2="1335.8226" y1="114.4875" y2="114.4875"/></g><!--class Issue--><g class="entity" data-qualified-name="Issue" data-source-line="73" id="ent0007"><rect fill="#FFF8E7" height="172.6719" rx="5" ry="5" style="stroke:#3C6E91;stroke-width:0.5;" width="192.3799" x="878.34" y="485.7069"/><text fill="#000000" font-family="'Segoe UI'" font-size="14" lengthAdjust="spacing" textLength="36.2031" x="956.4284" y="503.702">Issue</text><line style="stroke:#3C6E91;stroke-width:0.5;" x1="879.34" x2="1069.7199" y1="512.0038" y2="512.0038"/><text fill="#000000" font-family="'Segoe UI'" font-size="14" lengthAdjust="spacing" textLength="51.9805" x="884.34" y="528.9989">id &#171;PK&#187;</text><line style="stroke:#3C6E91;stroke-width:1;" x1="879.34" x2="1069.7199" y1="536.3006" y2="536.3006"/><text fill="#000000" font-family="'Segoe UI'" font-size="14" lengthAdjust="spacing" textLength="155.3057" x="884.34" y="553.2957">household_id [1] &#171;FK&#187;</text><text fill="#000000" font-family="'Segoe UI'" font-size="14" lengthAdjust="spacing" textLength="105.458" x="884.34" y="569.5926">title : string [1]</text><text fill="#000000" font-family="'Segoe UI'" font-size="14" lengthAdjust="spacing" textLength="143.6162" x="884.34" y="585.8895">description : text [1]</text><text fill="#000000" font-family="'Segoe UI'" font-size="14" lengthAdjust="spacing" textLength="161.7314" x="884.34" y="602.1864">status : IssueStatus [1]</text><text fill="#000000" font-family="'Segoe UI'" font-size="14" lengthAdjust="spacing" textLength="175.7998" x="884.34" y="618.4832">created_at : datetime [1]</text><text fill="#000000" font-family="'Segoe UI'" font-size="14" lengthAdjust="spacing" textLength="180.3799" x="884.34" y="634.7801">updated_at : datetime [1]</text><text fill="#000000" font-family="'Segoe UI'" font-size="14" lengthAdjust="spacing" textLength="109.2314" x="884.34" y="651.077">author [1] &#171;FK&#187;</text></g><!--class Rule--><g class="entity" data-qualified-name="Rule" data-source-line="85" id="ent0008"><rect fill="#FFF8E7" height="156.375" rx="5" ry="5" style="stroke:#3C6E91;stroke-width:0.5;" width="227.7148" x="860.68" y="706.8569"/><text fill="#000000" font-family="'Segoe UI'" font-size="14" lengthAdjust="spacing" textLength="31.1035" x="958.9857" y="724.852">Rule</text><line style="stroke:#3C6E91;stroke-width:0.5;" x1="861.68" x2="1087.3948" y1="733.1538" y2="733.1538"/><text fill="#000000" font-family="'Segoe UI'" font-size="14" lengthAdjust="spacing" textLength="51.9805" x="866.68" y="750.1489">id &#171;PK&#187;</text><line style="stroke:#3C6E91;stroke-width:1;" x1="861.68" x2="1087.3948" y1="757.4506" y2="757.4506"/><text fill="#000000" font-family="'Segoe UI'" font-size="14" lengthAdjust="spacing" textLength="155.3057" x="866.68" y="774.4457">household_id [1] &#171;FK&#187;</text><text fill="#000000" font-family="'Segoe UI'" font-size="14" lengthAdjust="spacing" textLength="105.9639" x="866.68" y="790.7426">text : string [1]</text><text fill="#000000" font-family="'Segoe UI'" font-size="14" lengthAdjust="spacing" textLength="175.7998" x="866.68" y="807.0395">created_at : datetime [1]</text><text fill="#000000" font-family="'Segoe UI'" font-size="14" lengthAdjust="spacing" textLength="215.7148" x="866.68" y="823.3364">last_modified_at : datetime [1]</text><text fill="#000000" font-family="'Segoe UI'" font-size="14" lengthAdjust="spacing" textLength="109.2314" x="866.68" y="839.6332">author [1] &#171;FK&#187;</text><text fill="#000000" font-family="'Segoe UI'" font-size="14" lengthAdjust="spacing" textLength="198.625" x="866.68" y="855.9301">last_modified_by [0..1] &#171;FK&#187;</text></g><!--class ChoreType--><g class="entity" data-qualified-name="ChoreType" data-source-line="97" id="ent0009"><rect fill="#F2F3F5" height="74.8906" rx="5" ry="5" style="stroke:#3C6E91;stroke-width:0.5;" width="81.9199" x="1219.54" y="170.5969"/><text fill="#000000" font-family="'Segoe UI'" font-size="14" lengthAdjust="spacing" textLength="75.9199" x="1222.54" y="188.592">ChoreType</text><line style="stroke:#3C6E91;stroke-width:0.5;" x1="1220.54" x2="1300.4599" y1="196.8937" y2="196.8937"/><text fill="#000000" font-family="'Segoe UI'" font-size="14" lengthAdjust="spacing" textLength="36.1963" x="1225.54" y="213.8889">TASK</text><text fill="#000000" font-family="'Segoe UI'" font-size="14" lengthAdjust="spacing" textLength="38.1309" x="1225.54" y="230.1857">DUTY</text><line style="stroke:#3C6E91;stroke-width:0.5;" x1="1220.54" x2="1300.4599" y1="237.4875" y2="237.4875"/></g><!--class ChoreStatus--><g class="entity" data-qualified-name="ChoreStatus" data-source-line="101" id="ent0010"><rect fill="#F2F3F5" height="74.8906" rx="5" ry="5" style="stroke:#3C6E91;stroke-width:0.5;" width="98.1396" x="1211.43" y="293.5969"/><text fill="#000000" font-family="'Segoe UI'" font-size="14" lengthAdjust="spacing" textLength="86.1943" x="1217.4027" y="311.592">ChoreStatus</text><line style="stroke:#3C6E91;stroke-width:0.5;" x1="1212.43" x2="1308.5696" y1="319.8937" y2="319.8937"/><text fill="#000000" font-family="'Segoe UI'" font-size="14" lengthAdjust="spacing" textLength="50.4561" x="1217.43" y="336.8889">ACTIVE</text><text fill="#000000" font-family="'Segoe UI'" font-size="14" lengthAdjust="spacing" textLength="86.1396" x="1217.43" y="353.1857">COMPLETED</text><line style="stroke:#3C6E91;stroke-width:0.5;" x1="1212.43" x2="1308.5696" y1="360.4875" y2="360.4875"/></g><!--class IssueStatus--><g class="entity" data-qualified-name="IssueStatus" data-source-line="105" id="ent0011"><rect fill="#F2F3F5" height="74.8906" rx="5" ry="5" style="stroke:#3C6E91;stroke-width:0.5;" width="87.4824" x="1216.76" y="534.5969"/><text fill="#000000" font-family="'Segoe UI'" font-size="14" lengthAdjust="spacing" textLength="80.8145" x="1220.094" y="552.592">IssueStatus</text><line style="stroke:#3C6E91;stroke-width:0.5;" x1="1217.76" x2="1303.2424" y1="560.8938" y2="560.8938"/><text fill="#000000" font-family="'Segoe UI'" font-size="14" lengthAdjust="spacing" textLength="38.7803" x="1222.76" y="577.8889">OPEN</text><text fill="#000000" font-family="'Segoe UI'" font-size="14" lengthAdjust="spacing" textLength="75.4824" x="1222.76" y="594.1857">RESOLVED</text><line style="stroke:#3C6E91;stroke-width:0.5;" x1="1217.76" x2="1303.2424" y1="601.4875" y2="601.4875"/></g><g class="entity" data-qualified-name="N_RULES" data-source-line="136" id="ent0029"><path d="M295.29,861.3769 L295.29,1012.705 A5,5 0 0 0 300.29,1017.705 L765.6806,1017.705 A5,5 0 0 0 770.6806,1012.705 L770.6806,866.3769 L760.6806,856.3769 L300.29,856.3769 A5,5 0 0 0 295.29,861.3769" fill="#FEFFDD" style="stroke:#181818;stroke-width:0.5;"/><path d="M760.6806,856.3769 L760.6806,863.8769 A2.5,2.5 0 0 0 763.1806,866.3769 L770.6806,866.3769 L760.6806,856.3769" fill="#FEFFDD" style="stroke:#181818;stroke-width:1;"/><text fill="#000000" font-family="'Segoe UI'" font-size="13" font-weight="700" lengthAdjust="spacing" textLength="149.8237" x="301.29" y="873.4438">Derived (not stored)</text><text fill="#000000" font-family="'Segoe UI'" font-size="13" lengthAdjust="spacing" textLength="296.7275" x="301.29" y="888.5766">&#8226; Overdue = Task, ACTIVE, due_date &lt; today</text><text fill="#000000" font-family="'Segoe UI'" font-size="13" lengthAdjust="spacing" textLength="380.7705" x="301.29" y="903.7094">&#8226; Pending confirmation = Duty, ACTIVE, end_date &lt; today</text><text fill="#000000" font-family="'Segoe UI'" font-size="13" lengthAdjust="spacing" textLength="4.1323" x="301.29" y="918.8422">&#160;</text><text fill="#000000" font-family="'Segoe UI'" font-size="13" font-weight="700" lengthAdjust="spacing" textLength="151.2012" x="301.29" y="933.975">Integrity constraints</text><text fill="#000000" font-family="'Segoe UI'" font-size="13" lengthAdjust="spacing" textLength="207.7969" x="301.29" y="949.1078">&#8226; Duty: end_date &gt;= start_date</text><text fill="#000000" font-family="'Segoe UI'" font-size="13" lengthAdjust="spacing" textLength="454.3906" x="301.29" y="964.2406">&#8226; completed_by &amp; completed_at set together iff status = COMPLETED</text><text fill="#000000" font-family="'Segoe UI'" font-size="13" lengthAdjust="spacing" textLength="330.0464" x="301.29" y="979.3735">&#8226; At most one household per user (user_id unique)</text><text fill="#000000" font-family="'Segoe UI'" font-size="13" lengthAdjust="spacing" textLength="399.8389" x="301.29" y="994.5063">&#8226; On leave: Membership row deleted; User and all authorship</text><text fill="#000000" font-family="'Segoe UI'" font-size="13" lengthAdjust="spacing" textLength="293.96" x="309.5546" y="1009.6391">kept and shown as "[former member] Name"</text></g><!--reverse link Chore to Task--><g class="link" data-entity-1="ent0004" data-entity-2="ent0005" data-link-type="extension" data-source-line="111" id="lnk12"><path codeLine="111" d="M1105.97,427.3569 C1136.06,427.3569 1149.98,427.3569 1178.08,427.3569" fill="none" id="Chore-backto-Task" style="stroke:#6B7B8C;stroke-width:1;"/><polygon fill="none" points="1087.97,427.3569,1105.97,433.3569,1105.97,421.3569,1087.97,427.3569" style="stroke:#6B7B8C;stroke-width:1;stroke-linejoin:miter;stroke-miterlimit:10;"/></g><!--reverse link Chore to Duty--><g class="link" data-entity-1="ent0004" data-entity-2="ent0006" data-link-type="extension" data-source-line="112" id="lnk13"><path codeLine="112" d="M1106.03,215.2369 C1161.14,215.2369 1197.61,215.2369 1197.61,215.2369 C1197.61,215.2369 1197.61,161.1569 1197.61,122.6969" fill="none" id="Chore-backto-Duty" style="stroke:#6B7B8C;stroke-width:1;"/><polygon fill="none" points="1088.03,215.2369,1106.03,221.2369,1106.03,209.2369,1088.03,215.2369" style="stroke:#6B7B8C;stroke-width:1;stroke-linejoin:miter;stroke-miterlimit:10;"/></g><!--link Chore to ChoreType--><g class="link" data-entity-1="ent0004" data-entity-2="ent0009" data-link-type="dependency" data-source-line="115" id="lnk14"><path codeLine="115" d="M1087.97,230.3669 C1134.28,230.3669 1179.92,230.3669 1214.28,230.3669" fill="none" id="Chore-to-ChoreType" style="stroke:#A0A0A0;stroke-width:1;stroke-dasharray:7,7;"/><polygon fill="#A0A0A0" points="1219.28,230.3669,1210.28,226.3669,1214.28,230.3669,1210.28,234.3669,1219.28,230.3669" style="stroke:#A0A0A0;stroke-width:1;stroke-linejoin:miter;stroke-miterlimit:10;"/></g><!--link Chore to ChoreStatus--><g class="link" data-entity-1="ent0004" data-entity-2="ent0010" data-link-type="dependency" data-source-line="116" id="lnk15"><path codeLine="116" d="M1087.97,331.0469 C1130.69,331.0469 1172.1,331.0469 1206.01,331.0469" fill="none" id="Chore-to-ChoreStatus" style="stroke:#A0A0A0;stroke-width:1;stroke-dasharray:7,7;"/><polygon fill="#A0A0A0" points="1211.01,331.0469,1202.01,327.0469,1206.01,331.0469,1202.01,335.0469,1211.01,331.0469" style="stroke:#A0A0A0;stroke-width:1;stroke-linejoin:miter;stroke-miterlimit:10;"/></g><!--link Issue to IssueStatus--><g class="link" data-entity-1="ent0007" data-entity-2="ent0011" data-link-type="dependency" data-source-line="117" id="lnk16"><path codeLine="117" d="M1070.95,572.0469 C1120.24,572.0469 1172.82,572.0469 1211.47,572.0469" fill="none" id="Issue-to-IssueStatus" style="stroke:#A0A0A0;stroke-width:1;stroke-dasharray:7,7;"/><polygon fill="#A0A0A0" points="1216.47,572.0469,1207.47,568.0469,1211.47,572.0469,1207.47,576.0469,1216.47,572.0469" style="stroke:#A0A0A0;stroke-width:1;stroke-linejoin:miter;stroke-miterlimit:10;"/></g><!--link User to Membership--><g class="link" data-entity-1="ent0001" data-entity-2="ent0003" data-link-type="association" data-source-line="120" id="lnk17"><path codeLine="120" d="M46.61,431.7869 C46.61,314.4269 46.61,80.1269 46.61,80.1269 C46.61,80.1269 623.02,80.1269 861.55,80.1269" fill="none" id="User-Membership" style="stroke:#6B7B8C;stroke-width:1;"/><line style="stroke:#6B7B8C;stroke-width:1;" x1="50.61" x2="42.61" y1="435.7869" y2="435.7869"/><line style="stroke:#6B7B8C;stroke-width:1;" x1="50.61" x2="42.61" y1="432.7869" y2="432.7869"/><line style="stroke:#6B7B8C;stroke-width:1;" x1="46.61" x2="46.61" y1="431.7869" y2="439.7869"/><line style="stroke:#6B7B8C;stroke-width:1;" x1="865.55" x2="876.55" y1="80.1269" y2="80.1269"/><ellipse cx="865.55" cy="80.1269" fill="none" rx="4" ry="4" style="stroke:#6B7B8C;stroke-width:1;"/><line style="stroke:#6B7B8C;stroke-width:1;" x1="872.55" x2="872.55" y1="76.1269" y2="84.1269"/><text fill="#000000" font-family="'Segoe UI'" font-size="13" lengthAdjust="spacing" textLength="22.9785" x="258.75" y="93.1938">has</text></g><!--link Household to Membership--><g class="link" data-entity-1="ent0002" data-entity-2="ent0003" data-link-type="crowfoot" data-source-line="121" id="lnk18"><path codeLine="121" d="M532.61,432.0069 C532.61,322.8769 532.61,115.9569 532.61,115.9569 C532.61,115.9569 738.56,115.9569 868.73,115.9569" fill="none" id="Household-Membership" style="stroke:#6B7B8C;stroke-width:1;"/><line style="stroke:#6B7B8C;stroke-width:1;" x1="536.61" x2="528.61" y1="436.0069" y2="436.0069"/><line style="stroke:#6B7B8C;stroke-width:1;" x1="536.61" x2="528.61" y1="433.0069" y2="433.0069"/><line style="stroke:#6B7B8C;stroke-width:1;" x1="532.61" x2="532.61" y1="432.0069" y2="440.0069"/><line style="stroke:#6B7B8C;stroke-width:1;" x1="868.73" x2="876.73" y1="115.9569" y2="109.9569"/><line style="stroke:#6B7B8C;stroke-width:1;" x1="868.73" x2="876.73" y1="115.9569" y2="121.9569"/><line style="stroke:#6B7B8C;stroke-width:1;" x1="868.73" x2="876.73" y1="115.9569" y2="115.9569"/><line style="stroke:#6B7B8C;stroke-width:1;" x1="866.73" x2="866.73" y1="111.9569" y2="119.9569"/><text fill="#000000" font-family="'Segoe UI'" font-size="13" lengthAdjust="spacing" textLength="53.8726" x="488.64" y="129.0238">includes</text></g><!--link Household to Chore--><g class="link" data-entity-1="ent0002" data-entity-2="ent0004" data-link-type="crowfoot" data-source-line="122" id="lnk19"><path codeLine="122" d="M661.2,457.7469 C758.9,457.7469 872.61,457.7469 872.61,457.7469 C872.61,457.7469 872.61,468.1269 872.61,456.4569" fill="none" id="Household-Chore" style="stroke:#6B7B8C;stroke-width:1;"/><line style="stroke:#6B7B8C;stroke-width:1;" x1="657.2" x2="657.2" y1="461.7469" y2="453.7469"/><line style="stroke:#6B7B8C;stroke-width:1;" x1="660.2" x2="660.2" y1="461.7469" y2="453.7469"/><line style="stroke:#6B7B8C;stroke-width:1;" x1="661.2" x2="653.2" y1="457.7469" y2="457.7469"/><line style="stroke:#6B7B8C;stroke-width:1;" x1="872.61" x2="866.61" y1="446.4569" y2="438.4569"/><line style="stroke:#6B7B8C;stroke-width:1;" x1="872.61" x2="878.61" y1="446.4569" y2="438.4569"/><line style="stroke:#6B7B8C;stroke-width:1;" x1="872.61" x2="872.61" y1="446.4569" y2="438.4569"/><ellipse cx="872.61" cy="452.4569" fill="none" rx="4" ry="4" style="stroke:#6B7B8C;stroke-width:1;"/><text fill="#000000" font-family="'Segoe UI'" font-size="13" lengthAdjust="spacing" textLength="33.5981" x="738.55" y="470.8138">owns</text></g><!--link Household to Issue--><g class="link" data-entity-1="ent0002" data-entity-2="ent0007" data-link-type="crowfoot" data-source-line="123" id="lnk20"><path codeLine="123" d="M661.05,511.7869 C731.67,511.7869 793.77,511.7869 859.88,511.7869" fill="none" id="Household-Issue" style="stroke:#6B7B8C;stroke-width:1;"/><line style="stroke:#6B7B8C;stroke-width:1;" x1="657.05" x2="657.05" y1="515.7869" y2="507.7869"/><line style="stroke:#6B7B8C;stroke-width:1;" x1="660.05" x2="660.05" y1="515.7869" y2="507.7869"/><line style="stroke:#6B7B8C;stroke-width:1;" x1="661.05" x2="653.05" y1="511.7869" y2="511.7869"/><line style="stroke:#6B7B8C;stroke-width:1;" x1="869.88" x2="877.88" y1="511.7869" y2="505.7869"/><line style="stroke:#6B7B8C;stroke-width:1;" x1="869.88" x2="877.88" y1="511.7869" y2="517.7869"/><line style="stroke:#6B7B8C;stroke-width:1;" x1="869.88" x2="877.88" y1="511.7869" y2="511.7869"/><ellipse cx="863.88" cy="511.7869" fill="none" rx="4" ry="4" style="stroke:#6B7B8C;stroke-width:1;"/><text fill="#000000" font-family="'Segoe UI'" font-size="13" lengthAdjust="spacing" textLength="33.5981" x="731.47" y="524.8538">owns</text></g><!--link Household to Rule--><g class="link" data-entity-1="ent0002" data-entity-2="ent0008" data-link-type="crowfoot" data-source-line="124" id="lnk21"><path codeLine="124" d="M660.96,537.8569 C756.6,537.8569 866.61,537.8569 866.61,537.8569 C866.61,537.8569 866.61,616.1169 866.61,688.4969" fill="none" id="Household-Rule" style="stroke:#6B7B8C;stroke-width:1;"/><line style="stroke:#6B7B8C;stroke-width:1;" x1="656.96" x2="656.96" y1="541.8569" y2="533.8569"/><line style="stroke:#6B7B8C;stroke-width:1;" x1="659.96" x2="659.96" y1="541.8569" y2="533.8569"/><line style="stroke:#6B7B8C;stroke-width:1;" x1="660.96" x2="652.96" y1="537.8569" y2="537.8569"/><line style="stroke:#6B7B8C;stroke-width:1;" x1="866.61" x2="872.61" y1="698.4969" y2="706.4969"/><line style="stroke:#6B7B8C;stroke-width:1;" x1="866.61" x2="860.61" y1="698.4969" y2="706.4969"/><line style="stroke:#6B7B8C;stroke-width:1;" x1="866.61" x2="866.61" y1="698.4969" y2="706.4969"/><ellipse cx="866.61" cy="692.4969" fill="none" rx="4" ry="4" style="stroke:#6B7B8C;stroke-width:1;"/><text fill="#000000" font-family="'Segoe UI'" font-size="13" lengthAdjust="spacing" textLength="33.5981" x="810.1" y="550.9238">owns</text></g><!--link User to Household--><g class="link" data-entity-1="ent0001" data-entity-2="ent0002" data-link-type="crowfoot" data-source-line="126" id="lnk22"><path codeLine="126" d="M213.68,481.4169 C275.63,481.4169 329.7,481.4169 395.13,481.4169" fill="none" id="User-Household" style="stroke:#6B7B8C;stroke-width:1;"/><line style="stroke:#6B7B8C;stroke-width:1;" x1="209.68" x2="209.68" y1="485.4169" y2="477.4169"/><line style="stroke:#6B7B8C;stroke-width:1;" x1="212.68" x2="212.68" y1="485.4169" y2="477.4169"/><line style="stroke:#6B7B8C;stroke-width:1;" x1="213.68" x2="205.68" y1="481.4169" y2="481.4169"/><line style="stroke:#6B7B8C;stroke-width:1;" x1="405.13" x2="413.13" y1="481.4169" y2="475.4169"/><line style="stroke:#6B7B8C;stroke-width:1;" x1="405.13" x2="413.13" y1="481.4169" y2="487.4169"/><line style="stroke:#6B7B8C;stroke-width:1;" x1="405.13" x2="413.13" y1="481.4169" y2="481.4169"/><ellipse cx="399.13" cy="481.4169" fill="none" rx="4" ry="4" style="stroke:#6B7B8C;stroke-width:1;"/><text fill="#000000" font-family="'Segoe UI'" font-size="13" lengthAdjust="spacing" textLength="48.3247" x="260.4" y="494.4838">creates</text></g><!--link User to Chore--><g class="link" data-entity-1="ent0001" data-entity-2="ent0004" data-link-type="crowfoot" data-source-line="127" id="lnk23"><path codeLine="127" d="M86.61,431.9169 C86.61,360.0769 86.61,259.5769 86.61,259.5769 C86.61,259.5769 603.8,259.5769 843.18,259.5769" fill="none" id="User-Chore" style="stroke:#6B7B8C;stroke-width:1;"/><line style="stroke:#6B7B8C;stroke-width:1;" x1="90.61" x2="82.61" y1="435.9169" y2="435.9169"/><line style="stroke:#6B7B8C;stroke-width:1;" x1="90.61" x2="82.61" y1="432.9169" y2="432.9169"/><line style="stroke:#6B7B8C;stroke-width:1;" x1="86.61" x2="86.61" y1="431.9169" y2="439.9169"/><line style="stroke:#6B7B8C;stroke-width:1;" x1="853.18" x2="861.18" y1="259.5769" y2="253.5769"/><line style="stroke:#6B7B8C;stroke-width:1;" x1="853.18" x2="861.18" y1="259.5769" y2="265.5769"/><line style="stroke:#6B7B8C;stroke-width:1;" x1="853.18" x2="861.18" y1="259.5769" y2="259.5769"/><ellipse cx="847.18" cy="259.5769" fill="none" rx="4" ry="4" style="stroke:#6B7B8C;stroke-width:1;"/><text fill="#000000" font-family="'Segoe UI'" font-size="13" lengthAdjust="spacing" textLength="72.249" x="310.72" y="272.6438">created_by</text></g><!--link User to Chore--><g class="link" data-entity-1="ent0001" data-entity-2="ent0004" data-link-type="crowfoot" data-source-line="128" id="lnk24"><path codeLine="128" d="M125.61,424.8369 C125.61,371.7769 125.61,319.0469 125.61,319.0469 C125.61,319.0469 611.6,319.0469 842.93,319.0469" fill="none" id="User-Chore-1" style="stroke:#6B7B8C;stroke-width:1;"/><line style="stroke:#6B7B8C;stroke-width:1;" x1="125.61" x2="125.61" y1="428.8369" y2="439.8369"/><ellipse cx="125.61" cy="428.8369" fill="none" rx="4" ry="4" style="stroke:#6B7B8C;stroke-width:1;"/><line style="stroke:#6B7B8C;stroke-width:1;" x1="129.61" x2="121.61" y1="435.8369" y2="435.8369"/><line style="stroke:#6B7B8C;stroke-width:1;" x1="852.93" x2="860.93" y1="319.0469" y2="313.0469"/><line style="stroke:#6B7B8C;stroke-width:1;" x1="852.93" x2="860.93" y1="319.0469" y2="325.0469"/><line style="stroke:#6B7B8C;stroke-width:1;" x1="852.93" x2="860.93" y1="319.0469" y2="319.0469"/><ellipse cx="846.93" cy="319.0469" fill="none" rx="4" ry="4" style="stroke:#6B7B8C;stroke-width:1;"/><text fill="#000000" font-family="'Segoe UI'" font-size="13" lengthAdjust="spacing" textLength="57.6113" x="374.87" y="332.1138">assignee</text></g><!--link User to Chore--><g class="link" data-entity-1="ent0001" data-entity-2="ent0004" data-link-type="crowfoot" data-source-line="129" id="lnk25"><path codeLine="129" d="M165.61,424.9169 C165.61,394.1469 165.61,378.5069 165.61,378.5069 C165.61,378.5069 620.58,378.5069 843.2,378.5069" fill="none" id="User-Chore-2" style="stroke:#6B7B8C;stroke-width:1;"/><line style="stroke:#6B7B8C;stroke-width:1;" x1="165.61" x2="165.61" y1="428.9169" y2="439.9169"/><ellipse cx="165.61" cy="428.9169" fill="none" rx="4" ry="4" style="stroke:#6B7B8C;stroke-width:1;"/><line style="stroke:#6B7B8C;stroke-width:1;" x1="169.61" x2="161.61" y1="435.9169" y2="435.9169"/><line style="stroke:#6B7B8C;stroke-width:1;" x1="853.2" x2="861.2" y1="378.5069" y2="372.5069"/><line style="stroke:#6B7B8C;stroke-width:1;" x1="853.2" x2="861.2" y1="378.5069" y2="384.5069"/><line style="stroke:#6B7B8C;stroke-width:1;" x1="853.2" x2="861.2" y1="378.5069" y2="378.5069"/><ellipse cx="847.2" cy="378.5069" fill="none" rx="4" ry="4" style="stroke:#6B7B8C;stroke-width:1;"/><text fill="#000000" font-family="'Segoe UI'" font-size="13" lengthAdjust="spacing" textLength="91.4189" x="390.7" y="391.5738">completed_by</text></g><!--link User to Issue--><g class="link" data-entity-1="ent0001" data-entity-2="ent0007" data-link-type="crowfoot" data-source-line="130" id="lnk26"><path codeLine="130" d="M155.61,572.2469 C155.61,596.7569 155.61,611.1569 155.61,611.1569 C155.61,611.1569 643.71,611.1569 860.18,611.1569" fill="none" id="User-Issue" style="stroke:#6B7B8C;stroke-width:1;"/><line style="stroke:#6B7B8C;stroke-width:1;" x1="151.61" x2="159.61" y1="568.2469" y2="568.2469"/><line style="stroke:#6B7B8C;stroke-width:1;" x1="151.61" x2="159.61" y1="571.2469" y2="571.2469"/><line style="stroke:#6B7B8C;stroke-width:1;" x1="155.61" x2="155.61" y1="572.2469" y2="564.2469"/><line style="stroke:#6B7B8C;stroke-width:1;" x1="870.18" x2="878.18" y1="611.1569" y2="605.1569"/><line style="stroke:#6B7B8C;stroke-width:1;" x1="870.18" x2="878.18" y1="611.1569" y2="617.1569"/><line style="stroke:#6B7B8C;stroke-width:1;" x1="870.18" x2="878.18" y1="611.1569" y2="611.1569"/><ellipse cx="864.18" cy="611.1569" fill="none" rx="4" ry="4" style="stroke:#6B7B8C;stroke-width:1;"/><text fill="#000000" font-family="'Segoe UI'" font-size="13" lengthAdjust="spacing" textLength="42.8403" x="450.44" y="624.2238">author</text></g><!--link User to Rule--><g class="link" data-entity-1="ent0001" data-entity-2="ent0008" data-link-type="crowfoot" data-source-line="131" id="lnk27"><path codeLine="131" d="M56.61,572.3969 C56.61,661.4769 56.61,806.5369 56.61,806.5369 C56.61,806.5369 596.77,806.5369 842.6,806.5369" fill="none" id="User-Rule" style="stroke:#6B7B8C;stroke-width:1;"/><line style="stroke:#6B7B8C;stroke-width:1;" x1="52.61" x2="60.61" y1="568.3969" y2="568.3969"/><line style="stroke:#6B7B8C;stroke-width:1;" x1="52.61" x2="60.61" y1="571.3969" y2="571.3969"/><line style="stroke:#6B7B8C;stroke-width:1;" x1="56.61" x2="56.61" y1="572.3969" y2="564.3969"/><line style="stroke:#6B7B8C;stroke-width:1;" x1="852.6" x2="860.6" y1="806.5369" y2="800.5369"/><line style="stroke:#6B7B8C;stroke-width:1;" x1="852.6" x2="860.6" y1="806.5369" y2="812.5369"/><line style="stroke:#6B7B8C;stroke-width:1;" x1="852.6" x2="860.6" y1="806.5369" y2="806.5369"/><ellipse cx="846.6" cy="806.5369" fill="none" rx="4" ry="4" style="stroke:#6B7B8C;stroke-width:1;"/><text fill="#000000" font-family="'Segoe UI'" font-size="13" lengthAdjust="spacing" textLength="42.8403" x="294.53" y="819.6038">author</text></g><!--link User to Rule--><g class="link" data-entity-1="ent0001" data-entity-2="ent0008" data-link-type="crowfoot" data-source-line="132" id="lnk28"><path codeLine="132" d="M106.61,579.3369 C106.61,654.7269 106.61,756.6969 106.61,756.6969 C106.61,756.6969 607.15,756.6969 842.62,756.6969" fill="none" id="User-Rule-1" style="stroke:#6B7B8C;stroke-width:1;"/><line style="stroke:#6B7B8C;stroke-width:1;" x1="106.61" x2="106.61" y1="575.3369" y2="564.3369"/><ellipse cx="106.61" cy="575.3369" fill="none" rx="4" ry="4" style="stroke:#6B7B8C;stroke-width:1;"/><line style="stroke:#6B7B8C;stroke-width:1;" x1="102.61" x2="110.61" y1="568.3369" y2="568.3369"/><line style="stroke:#6B7B8C;stroke-width:1;" x1="852.62" x2="860.62" y1="756.6969" y2="750.6969"/><line style="stroke:#6B7B8C;stroke-width:1;" x1="852.62" x2="860.62" y1="756.6969" y2="762.6969"/><line style="stroke:#6B7B8C;stroke-width:1;" x1="852.62" x2="860.62" y1="756.6969" y2="756.6969"/><ellipse cx="846.62" cy="756.6969" fill="none" rx="4" ry="4" style="stroke:#6B7B8C;stroke-width:1;"/><text fill="#000000" font-family="'Segoe UI'" font-size="13" lengthAdjust="spacing" textLength="109.313" x="277.44" y="769.7638">last_modified_by</text></g><!--link User to N_RULES--><?plantuml-src nLVhJXiv5Fu_Jt44KXjOmi9sjwLPG4f3HelAJIGWhH2Ad1aduut7JcqFR0H8F4IVO1-D9zbZpqp6amPKLTijH4actpdsvtEtOOPJ23an8PUtyFJu6Gw88N0iOygXmUMOHOJ3pz0zNmiu7Ham4XGR9mPYfcXac1H1y1gUFZ_Y2tfcnfaOGsD2fmQOC5HO2SBv3BZLMYialzChI5XC8M8guZJG4oQcH94KjnRKpAOKf3A9z02Ta5ZUMiOZmhMlecGcuaWgGHLiRtc0GCjeEeLVTtnf8YRsn_U-P4n79ECcbCASa9J2Ie-E9OMBmnLFAE94QxWB0AoSjH-5eUGn_j0sHh5XPcY5J3bX0g4FKiLKTIIN2bRVTDvstsy73zwgRQNaRG6__V3kmqvd4UmdB9e8YdjlRsvv7ZoChSlC35v1IjCXLJfXKsWCUKQ_i--MUBEWSg7H2QlTdN0hx3fJiHXsTyy-xk_ZzsOJtsXA68SMQBGOElDg-ne5Ci4-PTG9nKoZwMO3OVtWYo4sHGVSeZq72T798XWJGmT_IOoV627xP1WkOS67eEJtXymqJT1fBvDSjZaJDmntY32eNg0VAOexnmDY5abKs71Mw8LsouhSSUN55zdX4TG0VwqMgND8oaFMXH39pRE4t8CNLvMD8kdA0ZI89VQ_1zKNqTL9fAAm6eRXJlVTSjiyVtPNLLhv6dtxFNUASMLrCPQeZXIRseA8aA5_6xZQsjnqc3R4PBfSgPS_rHsypFdPD7u-C6GwvNG9MkwvF780C1_OMD1IiWAg5QrA3QpYhK_qf6RDEAC3ktd1eTo_qZZ8yCtNG6CeKzTnXAc8l_YrMkPGw-pR_VYr3gjxo-tvdtYBPDYPrF8KFi_ujn_CibuurqiSiHsPGIfZDc9VpNHHQrbqp0l19S5M0h74YYqq3XPKPAc6nbZHsOzeC5dg9Uzg-4lu9lpDsRZVxdt4ZuEB_f_8ln8ilEsBjZlzmyikVkcS7fyTTVlTWrB3ZmzVu_IiUu8VvztUwT6b4_Tcg6negufsmvWKsFIJcNPJc25338I6HazosioVc4YeOeQ8wEN-7EHbRlU-sNGfwZ_R1FG8pESEkAdvge6Re986az32RO8IPH-PWZnMwnoAJJQlLjjRzlzwSx-ozhDWRgyWp-SQx9dJutjESNp57BKz3bb6EDsyrisHbEP7D9V0JIlkxnwDA-_z3jm273A2gXTQYVkxkWGJ4S-mz2o8oRkYKw68l1LBuDnWpyAkYipXd6O1LRAjeZZe6fvltF8wHW7B6bmsZgMWtpngY-UqMqLTgK4vvGL8rg35okF5nOd4SxHWn2M61nO_JiVOGQ21apExmNcEb76kuITtLnahMsqLhgmNubZWKdWyE1cSNnnrUvYww-i7nJ8D1B6-uYdZjVLrX9uU_u7J6wgmyS6UIxQDeaHiLCrm5ozICPaLucT8p5B4sMZ4LEh26NLjObQwy_PNwZeQXtFYg8nb7bFLw3aFkqAhqjpVyvfh8LBhwg_gOuEczi8tffZY2jXeL7Q-FQ_KvQkq3QHI6rUmvjq8fgXc1qjebEDbFb6kbMOIw1LoGrj-2c3-Okjr77xFPt-2RiCxP147LYYm-UKkcHRJ2SQqzS_ArKYg53Nokyirs8lNIc3TRbreWmFlG1DNmOfmOC8z3QKnCcswAsv-xTk08RLtOeiw5aasp4EmUONNJBmdNUFTKJJBeFWN?></g></svg>