<svg xmlns="http://www.w3.org/2000/svg" xmlns:xlink="http://www.w3.org/1999/xlink" contentStyleType="text/css" data-diagram-type="DESCRIPTION" height="880px" preserveAspectRatio="none" style="width:1243px;height:880px;background:#FFFFFF;" version="1.1" viewBox="0 0 1243 880" width="1243px" zoomAndPan="magnify"><?plantuml 1.2026.4?><defs/><g><g class="title" data-source-line="1"><text fill="#000000" font-family="'Segoe UI'" font-size="14" font-weight="700" lengthAdjust="spacing" textLength="278.5371" x="478.7314" y="22.9951">FlatFlow &#8212; High-Level Architecture</text></g><!--cluster Presentation Layer  ?View?--><g class="cluster" data-qualified-name="Presentation Layer  .View." data-source-line="20" id="ent0001"><rect fill="#E8F0FE" height="87.3" rx="3" ry="3" style="stroke:#181818;stroke-width:1;" width="232" x="190" y="44.2969"/><text fill="#000000" font-family="'Segoe UI'" font-size="14" font-weight="700" lengthAdjust="spacing" textLength="216.3369" x="197.8315" y="59.292">Presentation Layer  &#171;View&#187;</text></g><!--cluster Edge Layer  ?Controller?--><g class="cluster" data-qualified-name="Edge Layer  .Controller." data-source-line="25" id="ent0003"><rect fill="#FFF8E7" height="372.59" rx="3" ry="3" style="stroke:#181818;stroke-width:1;" width="384" x="7" y="195.5969"/><text fill="#000000" font-family="'Segoe UI'" font-size="14" font-weight="700" lengthAdjust="spacing" textLength="194.7764" x="101.6118" y="210.592">Edge Layer  &#171;Controller&#187;</text></g><!--cluster Business Logic Layer--><g class="cluster" data-qualified-name="Business Logic Layer" data-source-line="33" id="ent0008"><rect fill="#FFF8E7" height="87.29" rx="3" ry="3" style="stroke:#181818;stroke-width:1;" width="814" x="415" y="480.8969"/><text fill="#000000" font-family="'Segoe UI'" font-size="14" font-weight="700" lengthAdjust="spacing" textLength="165.1973" x="739.4014" y="495.892">Business Logic Layer</text></g><!--cluster Model Layer  ?Model?--><g class="cluster" data-qualified-name="Model Layer  .Model." data-source-line="42" id="ent0014"><rect fill="#F2F3F5" height="103.6" rx="3" ry="3" style="stroke:#181818;stroke-width:1;" width="216" x="756" y="601.1869"/><text fill="#000000" font-family="'Segoe UI'" font-size="14" font-weight="700" lengthAdjust="spacing" textLength="172.334" x="777.833" y="616.182">Model Layer  &#171;Model&#187;</text></g><!--cluster Data Layer--><g class="cluster" data-qualified-name="Data Layer" data-source-line="46" id="ent0016"><rect fill="#F2F3F5" height="112.59" rx="3" ry="3" style="stroke:#181818;stroke-width:1;" width="194" x="767" y="753.7869"/><text fill="#000000" font-family="'Segoe UI'" font-size="14" font-weight="700" lengthAdjust="spacing" textLength="85.9756" x="821.0122" y="768.782">Data Layer</text></g><!--entity SPA--><g class="entity" data-qualified-name="Presentation Layer  .View..SPA" data-source-line="21" id="ent0002"><rect fill="#FBFCFE" height="36.2969" rx="3" ry="3" style="stroke:#3C6E91;stroke-width:0.5;" width="181.7793" x="215.11" y="79.2969"/><text fill="#000000" font-family="'Segoe UI'" font-size="14" lengthAdjust="spacing" textLength="161.7793" x="225.11" y="102.292">React SPA (TypeScript)</text></g><!--entity REST--><g class="entity" data-qualified-name="Edge Layer  .Controller..REST" data-source-line="26" id="ent0004"><ellipse cx="306" cy="275.5969" fill="#F1F1F1" rx="8" ry="8" style="stroke:#181818;stroke-width:0.5;"/><text fill="#000000" font-family="'Segoe UI'" font-size="14" lengthAdjust="spacing" textLength="62.6104" x="253.9956" y="305.592">REST API</text><text fill="#000000" font-family="'Segoe UI'" font-size="14" lengthAdjust="spacing" textLength="104.0088" x="253.9956" y="321.8889">(HTTPS / JSON)</text></g><!--entity CTRL--><g class="entity" data-qualified-name="Edge Layer  .Controller..CTRL" data-source-line="27" id="ent0005"><rect fill="#FBFCFE" height="36.2969" rx="3" ry="3" style="stroke:#3C6E91;stroke-width:0.5;" width="138.2549" x="236.87" y="381.5969"/><text fill="#000000" font-family="'Segoe UI'" font-size="14" lengthAdjust="spacing" textLength="118.2549" x="246.87" y="404.592">Views / ViewSets</text></g><!--entity SER--><g class="entity" data-qualified-name="Edge Layer  .Controller..SER" data-source-line="28" id="ent0006"><rect fill="#FBFCFE" height="36.2969" rx="3" ry="3" style="stroke:#3C6E91;stroke-width:0.5;" width="92.5156" x="22.74" y="515.8969"/><text fill="#000000" font-family="'Segoe UI'" font-size="14" lengthAdjust="spacing" textLength="72.5156" x="32.74" y="538.892">Serializers</text></g><!--entity AUTH--><g class="entity" data-qualified-name="Edge Layer  .Controller..AUTH" data-source-line="29" id="ent0007"><rect fill="#FBFCFE" height="36.2969" rx="3" ry="3" style="stroke:#3C6E91;stroke-width:0.5;" width="216.3281" x="149.84" y="515.8969"/><text fill="#000000" font-family="'Segoe UI'" font-size="14" lengthAdjust="spacing" textLength="196.3281" x="159.84" y="538.892">Session &amp; CSRF middleware</text></g><!--entity S_AUTH--><g class="entity" data-qualified-name="Business Logic Layer.S_AUTH" data-source-line="34" id="ent0009"><rect fill="#FBFCFE" height="36.2969" rx="3" ry="3" style="stroke:#3C6E91;stroke-width:0.5;" width="154.5313" x="430.73" y="515.8969"/><text fill="#000000" font-family="'Segoe UI'" font-size="14" lengthAdjust="spacing" textLength="134.5313" x="440.73" y="538.892">Auth / User Service</text></g><!--entity S_HH--><g class="entity" data-qualified-name="Business Logic Layer.S_HH" data-source-line="35" id="ent0010"><rect fill="#FBFCFE" height="36.2969" rx="3" ry="3" style="stroke:#3C6E91;stroke-width:0.5;" width="150.2793" x="619.86" y="515.8969"/><text fill="#000000" font-family="'Segoe UI'" font-size="14" lengthAdjust="spacing" textLength="130.2793" x="629.86" y="538.892">Household Service</text></g><!--entity S_CHORE--><g class="entity" data-qualified-name="Business Logic Layer.S_CHORE" data-source-line="36" id="ent0011"><rect fill="#FBFCFE" height="36.2969" rx="3" ry="3" style="stroke:#3C6E91;stroke-width:0.5;" width="117.7744" x="805.11" y="515.8969"/><text fill="#000000" font-family="'Segoe UI'" font-size="14" lengthAdjust="spacing" textLength="97.7744" x="815.11" y="538.892">Chore Service</text></g><!--entity S_ISSUE--><g class="entity" data-qualified-name="Business Logic Layer.S_ISSUE" data-source-line="37" id="ent0012"><rect fill="#FBFCFE" height="36.2969" rx="3" ry="3" style="stroke:#3C6E91;stroke-width:0.5;" width="112.3945" x="957.8" y="515.8969"/><text fill="#000000" font-family="'Segoe UI'" font-size="14" lengthAdjust="spacing" textLength="92.3945" x="967.8" y="538.892">Issue Service</text></g><!--entity S_RULE--><g class="entity" data-qualified-name="Business Logic Layer.S_RULE" data-source-line="38" id="ent0013"><rect fill="#FBFCFE" height="36.2969" rx="3" ry="3" style="stroke:#3C6E91;stroke-width:0.5;" width="107.2949" x="1105.35" y="515.8969"/><text fill="#000000" font-family="'Segoe UI'" font-size="14" lengthAdjust="spacing" textLength="87.2949" x="1115.35" y="538.892">Rule Service</text></g><!--entity MODEL--><g class="entity" data-qualified-name="Model Layer  .Model..MODEL" data-source-line="43" id="ent0015"><rect fill="#FBFCFE" height="52.5938" rx="3" ry="3" style="stroke:#3C6E91;stroke-width:0.5;" width="183.8643" x="772.07" y="636.1869"/><text fill="#000000" font-family="'Segoe UI'" font-size="14" lengthAdjust="spacing" textLength="142.1875" x="782.07" y="659.182">Django ORM models</text><text fill="#000000" font-family="'Segoe UI'" font-size="14" lengthAdjust="spacing" textLength="163.8643" x="782.07" y="675.4789">(managers / querysets)</text></g><!--entity DB--><g class="entity" data-qualified-name="Data Layer.DB" data-source-line="47" id="ent0017"><path d="M782.96,798.7869 C782.96,788.7869 864.0025,788.7869 864.0025,788.7869 C864.0025,788.7869 945.045,788.7869 945.045,798.7869 L945.045,840.3806 C945.045,850.3806 864.0025,850.3806 864.0025,850.3806 C864.0025,850.3806 782.96,850.3806 782.96,840.3806 L782.96,798.7869" fill="#E9F5EA" style="stroke:#2E7D32;stroke-width:0.5;"/><path d="M782.96,798.7869 C782.96,808.7869 864.0025,808.7869 864.0025,808.7869 C864.0025,808.7869 945.045,808.7869 945.045,798.7869" fill="none" style="stroke:#2E7D32;stroke-width:0.5;"/><text fill="#000000" font-family="'Segoe UI'" font-size="14" lengthAdjust="spacing" textLength="80.7529" x="792.96" y="825.782">PostgreSQL</text><text fill="#000000" font-family="'Segoe UI'" font-size="14" lengthAdjust="spacing" textLength="142.085" x="792.96" y="842.0789">app data + sessions</text></g><!--link SPA to REST--><g class="link" data-entity-1="ent0002" data-entity-2="ent0004" data-link-type="dependency" data-source-line="51" id="lnk18"><path d="M306,115.9769 C306,153.5769 306,235.6469 306,261.9369" fill="none" id="SPA-to-REST" style="stroke:#5A6B7B;stroke-width:1;"/><polygon fill="#5A6B7B" points="306,266.9369,310,257.9369,306,261.9369,302,257.9369,306,266.9369" style="stroke:#5A6B7B;stroke-width:1;stroke-linejoin:miter;stroke-miterlimit:10;"/><text fill="#000000" font-family="'Segoe UI'" font-size="13" lengthAdjust="spacing" textLength="119.8755" x="316.2295" y="160.6638">HTTPS, REST/JSON</text><text fill="#000000" font-family="'Segoe UI'" font-size="13" lengthAdjust="spacing" textLength="138.3345" x="307" y="175.7966">(request &#8644; response)</text></g><!--link REST to CTRL--><g class="link" data-entity-1="ent0004" data-entity-2="ent0005" data-link-type="dependency" data-source-line="52" id="lnk19"><path d="M306,284.2369 C306,303.4569 306,349.2069 306,376.2269" fill="none" id="REST-to-CTRL" style="stroke:#5A6B7B;stroke-width:1;"/><polygon fill="#5A6B7B" points="306,381.2269,310,372.2269,306,376.2269,302,372.2269,306,381.2269" style="stroke:#5A6B7B;stroke-width:1;stroke-linejoin:miter;stroke-miterlimit:10;"/></g><!--link CTRL to AUTH--><g class="link" data-entity-1="ent0005" data-entity-2="ent0007" data-link-type="dependency" data-source-line="53" id="lnk20"><path d="M288.18,417.9669 C280.68,426.2869 272.64,436.8469 268,447.8969 C258.72,469.9869 257.1262,492.967 257.2462,510.697" fill="none" id="CTRL-to-AUTH" style="stroke:#5A6B7B;stroke-width:1;stroke-dasharray:7,7;"/><polygon fill="#5A6B7B" points="257.28,515.6969,261.219,506.67,257.2462,510.697,253.2192,506.7242,257.28,515.6969" style="stroke:#5A6B7B;stroke-width:1;stroke-linejoin:miter;stroke-miterlimit:10;"/><text fill="#000000" font-family="'Segoe UI'" font-size="13" lengthAdjust="spacing" textLength="157.4473" x="269" y="460.9638">validate session + CSRF</text></g><!--link CTRL to SER--><g class="link" data-entity-1="ent0005" data-entity-2="ent0006" data-link-type="dependency" data-source-line="54" id="lnk21"><path d="M236.51,410.0469 C204.25,416.7869 166.6,428.3169 137,447.8969 C110.65,465.3269 92.2649,491.9312 80.9149,511.3312" fill="none" id="CTRL-to-SER" style="stroke:#5A6B7B;stroke-width:1;stroke-dasharray:7,7;"/><polygon fill="#5A6B7B" points="78.39,515.6469,86.3873,509.8986,80.9149,511.3312,79.4823,505.8588,78.39,515.6469" style="stroke:#5A6B7B;stroke-width:1;stroke-linejoin:miter;stroke-miterlimit:10;"/><text fill="#000000" font-family="'Segoe UI'" font-size="13" lengthAdjust="spacing" textLength="116.3081" x="138" y="460.9638">(de)serialize JSON</text></g><!--link CTRL to S_AUTH--><g class="link" data-entity-1="ent0005" data-entity-2="ent0009" data-link-type="dependency" data-source-line="55" id="lnk22"><path d="M369.89,418.2769 C390.42,425.5869 412.6,435.3569 431,447.8969 C458.18,466.4069 479.3839,492.3725 493.1039,511.3825" fill="none" id="CTRL-to-S_AUTH" style="stroke:#5A6B7B;stroke-width:1;"/><polygon fill="#5A6B7B" points="496.03,515.4369,494.0064,505.7981,493.1039,511.3825,487.5195,510.4799,496.03,515.4369" style="stroke:#5A6B7B;stroke-width:1;stroke-linejoin:miter;stroke-miterlimit:10;"/></g><!--link CTRL to S_HH--><g class="link" data-entity-1="ent0005" data-entity-2="ent0010" data-link-type="dependency" data-source-line="56" id="lnk23"><path d="M375.37,410.7169 C436.96,421.1569 528.5,440.6269 603,472.8969 C628.57,483.9669 650.8897,498.9672 668.7997,512.3972" fill="none" id="CTRL-to-S_HH" style="stroke:#5A6B7B;stroke-width:1;"/><polygon fill="#5A6B7B" points="672.8,515.3969,667.9992,506.7973,668.7997,512.3972,663.1998,513.1977,672.8,515.3969" style="stroke:#5A6B7B;stroke-width:1;stroke-linejoin:miter;stroke-miterlimit:10;"/></g><!--link CTRL to S_CHORE--><g class="link" data-entity-1="ent0005" data-entity-2="ent0011" data-link-type="dependency" data-source-line="57" id="lnk24"><path d="M375.3,400.0869 C471.77,401.5769 650.2,413.1569 788,472.8969 C811,482.8669 829.3923,498.1243 843.7323,512.0443" fill="none" id="CTRL-to-S_CHORE" style="stroke:#5A6B7B;stroke-width:1;"/><polygon fill="#5A6B7B" points="847.32,515.5269,843.6483,506.388,843.7323,512.0443,838.0761,512.1283,847.32,515.5269" style="stroke:#5A6B7B;stroke-width:1;stroke-linejoin:miter;stroke-miterlimit:10;"/></g><!--link CTRL to S_ISSUE--><g class="link" data-entity-1="ent0005" data-entity-2="ent0012" data-link-type="dependency" data-source-line="58" id="lnk25"><path d="M375.59,403.4669 C518.53,409.9069 840.13,428.9269 940,472.8969 C962.58,482.8269 980.4057,498.0401 994.3257,511.9701" fill="none" id="CTRL-to-S_ISSUE" style="stroke:#5A6B7B;stroke-width:1;"/><polygon fill="#5A6B7B" points="997.86,515.5069,994.3278,506.3132,994.3257,511.9701,988.6689,511.968,997.86,515.5069" style="stroke:#5A6B7B;stroke-width:1;stroke-linejoin:miter;stroke-miterlimit:10;"/></g><!--link CTRL to S_RULE--><g class="link" data-entity-1="ent0005" data-entity-2="ent0013" data-link-type="dependency" data-source-line="59" id="lnk26"><path d="M375.31,404.7869 C487.59,411.6569 716.14,426.9069 909,447.8969 C988.86,456.5869 1014.68,440.0769 1088,472.8969 C1109.97,482.7269 1126.9792,497.8591 1140.2292,511.8291" fill="none" id="CTRL-to-S_RULE" style="stroke:#5A6B7B;stroke-width:1;"/><polygon fill="#5A6B7B" points="1143.67,515.4569,1140.3788,506.1742,1140.2292,511.8291,1134.5743,511.6795,1143.67,515.4569" style="stroke:#5A6B7B;stroke-width:1;stroke-linejoin:miter;stroke-miterlimit:10;"/></g><!--link S_AUTH to MODEL--><g class="link" data-entity-1="ent0009" data-entity-2="ent0015" data-link-type="dependency" data-source-line="60" id="lnk27"><path d="M545.61,552.5169 C562.67,560.1769 583.19,569.0269 602,576.1869 C659.9,598.2269 721.4837,618.318 772.9337,634.248" fill="none" id="S_AUTH-to-MODEL" style="stroke:#5A6B7B;stroke-width:1;"/><polygon fill="#5A6B7B" points="777.71,635.7269,770.2957,629.2439,772.9337,634.248,767.9296,636.886,777.71,635.7269" style="stroke:#5A6B7B;stroke-width:1;stroke-linejoin:miter;stroke-miterlimit:10;"/></g><!--link S_HH to MODEL--><g class="link" data-entity-1="ent0010" data-entity-2="ent0015" data-link-type="dependency" data-source-line="61" id="lnk28"><path d="M718.5,552.6269 C747.34,574.1969 792.4768,607.9711 825.5768,632.7411" fill="none" id="S_HH-to-MODEL" style="stroke:#5A6B7B;stroke-width:1;"/><polygon fill="#5A6B7B" points="829.58,635.7369,824.7708,627.142,825.5768,632.7411,819.9777,633.5471,829.58,635.7369" style="stroke:#5A6B7B;stroke-width:1;stroke-linejoin:miter;stroke-miterlimit:10;"/></g><!--link S_CHORE to MODEL--><g class="link" data-entity-1="ent0011" data-entity-2="ent0015" data-link-type="dependency" data-source-line="62" id="lnk29"><path d="M864,552.6269 C864,574.1969 864,605.9669 864,630.7369" fill="none" id="S_CHORE-to-MODEL" style="stroke:#5A6B7B;stroke-width:1;"/><polygon fill="#5A6B7B" points="864,635.7369,868,626.7369,864,630.7369,860,626.7369,864,635.7369" style="stroke:#5A6B7B;stroke-width:1;stroke-linejoin:miter;stroke-miterlimit:10;"/></g><!--link S_ISSUE to MODEL--><g class="link" data-entity-1="ent0012" data-entity-2="ent0015" data-link-type="dependency" data-source-line="63" id="lnk30"><path d="M993.14,552.6269 C967.54,574.1969 927.7527,607.744 898.3727,632.514" fill="none" id="S_ISSUE-to-MODEL" style="stroke:#5A6B7B;stroke-width:1;"/><polygon fill="#5A6B7B" points="894.55,635.7369,904.0092,632.9938,898.3727,632.514,898.8526,626.8775,894.55,635.7369" style="stroke:#5A6B7B;stroke-width:1;stroke-linejoin:miter;stroke-miterlimit:10;"/></g><!--link S_RULE to MODEL--><g class="link" data-entity-1="ent0013" data-entity-2="ent0015" data-link-type="dependency" data-source-line="64" id="lnk31"><path d="M1131.23,552.5269 C1118.35,560.2769 1102.66,569.2069 1088,576.1869 C1040.19,598.9569 989.2816,618.4932 945.4216,634.0732" fill="none" id="S_RULE-to-MODEL" style="stroke:#5A6B7B;stroke-width:1;"/><polygon fill="#5A6B7B" points="940.71,635.7469,950.5297,636.5036,945.4216,634.0732,947.8519,628.965,940.71,635.7469" style="stroke:#5A6B7B;stroke-width:1;stroke-linejoin:miter;stroke-miterlimit:10;"/></g><!--link MODEL to DB--><g class="link" data-entity-1="ent0015" data-entity-2="ent0017" data-link-type="dependency" data-source-line="65" id="lnk32"><path d="M864,689.0969 C864,716.3669 864,754.5069 864,783.4069" fill="none" id="MODEL-to-DB" style="stroke:#5A6B7B;stroke-width:1;"/><polygon fill="#5A6B7B" points="864,788.4069,868,779.4069,864,783.4069,860,779.4069,864,788.4069" style="stroke:#5A6B7B;stroke-width:1;stroke-linejoin:miter;stroke-miterlimit:10;"/><text fill="#000000" font-family="'Segoe UI'" font-size="13" lengthAdjust="spacing" textLength="25.7271" x="865" y="733.8538">SQL</text></g><?plantuml-src lLNTRjD85BxFKnnb9KX4VtPRjGKaa1p7LefI6ko46rYXMVlK7ZhnX9bneh9QYGiaNe2ts4VWZaVfat1c9ZzsOMzsqKfMgZddp3Vd-yvF3JS28HRCn4AkuFR3PnZnejmVun8512ehkS7Cr0exdVjm-_a3VP2Q6y6h0dhNk30WADximPoPh4GDfaJ8cM4mbpcA_lhEl_uw-ffN2wRO738vNyWAAsFVHr2K5wiAWOsG1SkkMO7_7A1BbikLJVwA2TtqA5bNUIPLXGfE6_OShrWjJ2mhyvpD4Ref5X9XTjxzKMhmPmTW85MEAfH2AlZbE3oD7lrchPHRuLvPU-917CPHvw_cOoJS7qpZzp17qTdm-EX7CD6Z-2GAMZ21KdArTfy4fuEpGQDw4uMQCcM6omgUmCNB45voN46FZhPucU3a_i-5krl7TMcWstf_p6v8R_ZwjqtXwvSkqNaO_nf7Je1N2RBCG3e9e3UzMM2QARum_T-1QMiaoZjMKKxOdar8fL9I20BkANnNepPGiYgtFVjJQUqukTUtN7O9E4Pn73-CpXmZNXbKLooZAqcKJY6OdB-kUgFfT9B28JnBBv_tkvQTTLe1h2gQFFPlYaOxwk4q6LjdYeepmT-ZylOqIhnPQoljFGZJ98OvptE1AwRG1GMpwQWbtA3MlA8h86J1C-YjIbHsTfXOMmHVeju3F2WEG5FPQaqpeVZI5N2ZvqwABTxOtNQYj4Lu5TIc958pJN8HYINFV6xf6vSTHOnahR6K8h_Z7pblM4fAiUq9HvT9P9tdMjTtdUTfEdFEf1PtVSbi7BK4kR1xYrff-9QMXuJBv09wGMP81KYG5aJ-sAys3GzewLL4Mkb3wZ9rewb2tmlYyRRDuOw-BuxYu_Z4Iz9up8DJMsp0IQeTlClwud8OZMtIsqU6TkDkjTu1RnTAToArAHIcByQlAxPO-1tz0BJl5ktQRZXeAM7_9UYVl0V-dwzZTmRixpzramIFmOtOdZiTsZ4ZUJUhuVRJHsftJVjROx_Zukr5DsNs1muEdhgn8PWbpHi9XnlPI40xPBiuca6Wk5wEVRqPJpVNFiG2hxkySHwrJhwJ6mRVlGs3QraFuqdwVh1006sB0sjP75hBOk6QjzolEmy7n8KwvXi0?></g></svg>