<svg xmlns="http://www.w3.org/2000/svg" xmlns:xlink="http://www.w3.org/1999/xlink" contentStyleType="text/css" data-diagram-type="DESCRIPTION" height="864px" preserveAspectRatio="none" style="width:1243px;height:864px;background:#FFFFFF;" version="1.1" viewBox="0 0 1243 864" width="1243px" zoomAndPan="magnify"><?plantuml 1.2026.4?><defs/><g><g class="title" data-source-line="1"><text fill="#000000" font-family="'Segoe UI'" font-size="14" font-weight="700" lengthAdjust="spacing" textLength="278.5371" x="478.7314" y="22.9951">FlatFlow &#8212; High-Level Architecture</text></g><!--cluster Presentation Layer  ?View?--><g class="cluster" data-qualified-name="Presentation Layer  .View." data-source-line="20" id="ent0001"><rect fill="#E8F0FE" height="87.3" rx="3" ry="3" style="stroke:#181818;stroke-width:1;" width="232" x="190" y="44.2969"/><text fill="#000000" font-family="'Segoe UI'" font-size="14" font-weight="700" lengthAdjust="spacing" textLength="216.3369" x="197.8315" y="59.292">Presentation Layer  &#171;View&#187;</text></g><!--cluster Edge Layer  ?Controller?--><g class="cluster" data-qualified-name="Edge Layer  .Controller." data-source-line="25" id="ent0003"><rect fill="#FFF8E7" height="372.59" rx="3" ry="3" style="stroke:#181818;stroke-width:1;" width="384" x="7" y="195.5969"/><text fill="#000000" font-family="'Segoe UI'" font-size="14" font-weight="700" lengthAdjust="spacing" textLength="194.7764" x="101.6118" y="210.592">Edge Layer  &#171;Controller&#187;</text></g><!--cluster Business Logic Layer--><g class="cluster" data-qualified-name="Business Logic Layer" data-source-line="33" id="ent0008"><rect fill="#FFF8E7" height="87.3" rx="3" ry="3" style="stroke:#181818;stroke-width:1;" width="814" x="415" y="480.8869"/><text fill="#000000" font-family="'Segoe UI'" font-size="14" font-weight="700" lengthAdjust="spacing" textLength="165.1973" x="739.4014" y="495.882">Business Logic Layer</text></g><!--cluster Data Access Layer  ?Model?--><g class="cluster" data-qualified-name="Data Access Layer  .Model." data-source-line="42" id="ent0014"><rect fill="#F2F3F5" height="87.3" rx="3" ry="3" style="stroke:#181818;stroke-width:1;" width="240" x="744" y="601.1869"/><text fill="#000000" font-family="'Segoe UI'" font-size="14" font-weight="700" lengthAdjust="spacing" textLength="220.1445" x="753.9277" y="616.182">Data Access Layer  &#171;Model&#187;</text></g><!--cluster Data Layer--><g class="cluster" data-qualified-name="Data Layer" data-source-line="46" id="ent0016"><rect fill="#F2F3F5" height="112.59" rx="3" ry="3" style="stroke:#181818;stroke-width:1;" width="194" x="767" y="737.4869"/><text fill="#000000" font-family="'Segoe UI'" font-size="14" font-weight="700" lengthAdjust="spacing" textLength="85.9756" x="821.0122" y="752.482">Data Layer</text></g><!--entity SPA--><g class="entity" data-qualified-name="Presentation Layer  .View..SPA" data-source-line="21" id="ent0002"><rect fill="#FBFCFE" height="36.2969" rx="3" ry="3" style="stroke:#3C6E91;stroke-width:0.5;" width="181.7793" x="215.11" y="79.2969"/><text fill="#000000" font-family="'Segoe UI'" font-size="14" lengthAdjust="spacing" textLength="161.7793" x="225.11" y="102.292">React SPA (TypeScript)</text></g><!--entity REST--><g class="entity" data-qualified-name="Edge Layer  .Controller..REST" data-source-line="26" id="ent0004"><ellipse cx="306" cy="275.5969" fill="#F1F1F1" rx="8" ry="8" style="stroke:#181818;stroke-width:0.5;"/><text fill="#000000" font-family="'Segoe UI'" font-size="14" lengthAdjust="spacing" textLength="62.6104" x="253.9956" y="305.592">REST API</text><text fill="#000000" font-family="'Segoe UI'" font-size="14" lengthAdjust="spacing" textLength="104.0088" x="253.9956" y="321.8889">(HTTPS / JSON)</text></g><!--entity CTRL--><g class="entity" data-qualified-name="Edge Layer  .Controller..CTRL" data-source-line="27" id="ent0005"><rect fill="#FBFCFE" height="36.2969" rx="3" ry="3" style="stroke:#3C6E91;stroke-width:0.5;" width="138.2549" x="236.87" y="381.5969"/><text fill="#000000" font-family="'Segoe UI'" font-size="14" lengthAdjust="spacing" textLength="118.2549" x="246.87" y="404.592">Views / ViewSets</text></g><!--entity SER--><g class="entity" data-qualified-name="Edge Layer  .Controller..SER" data-source-line="28" id="ent0006"><rect fill="#FBFCFE" height="36.2969" rx="3" ry="3" style="stroke:#3C6E91;stroke-width:0.5;" width="92.5156" x="22.74" y="515.8869"/><text fill="#000000" font-family="'Segoe UI'" font-size="14" lengthAdjust="spacing" textLength="72.5156" x="32.74" y="538.882">Serializers</text></g><!--entity AUTH--><g class="entity" data-qualified-name="Edge Layer  .Controller..AUTH" data-source-line="29" id="ent0007"><rect fill="#FBFCFE" height="36.2969" rx="3" ry="3" style="stroke:#3C6E91;stroke-width:0.5;" width="220.7646" x="150.62" y="515.8869"/><text fill="#000000" font-family="'Segoe UI'" font-size="14" lengthAdjust="spacing" textLength="200.7646" x="160.62" y="538.882">Auth: session cookie + CSRF</text></g><!--entity S_AUTH--><g class="entity" data-qualified-name="Business Logic Layer.S_AUTH" data-source-line="34" id="ent0009"><rect fill="#FBFCFE" height="36.2969" rx="3" ry="3" style="stroke:#3C6E91;stroke-width:0.5;" width="154.5313" x="430.73" y="515.8869"/><text fill="#000000" font-family="'Segoe UI'" font-size="14" lengthAdjust="spacing" textLength="134.5313" x="440.73" y="538.882">Auth / User Service</text></g><!--entity S_HH--><g class="entity" data-qualified-name="Business Logic Layer.S_HH" data-source-line="35" id="ent0010"><rect fill="#FBFCFE" height="36.2969" rx="3" ry="3" style="stroke:#3C6E91;stroke-width:0.5;" width="150.2793" x="619.86" y="515.8869"/><text fill="#000000" font-family="'Segoe UI'" font-size="14" lengthAdjust="spacing" textLength="130.2793" x="629.86" y="538.882">Household Service</text></g><!--entity S_CHORE--><g class="entity" data-qualified-name="Business Logic Layer.S_CHORE" data-source-line="36" id="ent0011"><rect fill="#FBFCFE" height="36.2969" rx="3" ry="3" style="stroke:#3C6E91;stroke-width:0.5;" width="117.7744" x="805.11" y="515.8869"/><text fill="#000000" font-family="'Segoe UI'" font-size="14" lengthAdjust="spacing" textLength="97.7744" x="815.11" y="538.882">Chore Service</text></g><!--entity S_ISSUE--><g class="entity" data-qualified-name="Business Logic Layer.S_ISSUE" data-source-line="37" id="ent0012"><rect fill="#FBFCFE" height="36.2969" rx="3" ry="3" style="stroke:#3C6E91;stroke-width:0.5;" width="112.3945" x="957.8" y="515.8869"/><text fill="#000000" font-family="'Segoe UI'" font-size="14" lengthAdjust="spacing" textLength="92.3945" x="967.8" y="538.882">Issue Service</text></g><!--entity S_RULE--><g class="entity" data-qualified-name="Business Logic Layer.S_RULE" data-source-line="38" id="ent0013"><rect fill="#FBFCFE" height="36.2969" rx="3" ry="3" style="stroke:#3C6E91;stroke-width:0.5;" width="107.2949" x="1105.35" y="515.8869"/><text fill="#000000" font-family="'Segoe UI'" font-size="14" lengthAdjust="spacing" textLength="87.2949" x="1115.35" y="538.882">Rule Service</text></g><!--entity REPO--><g class="entity" data-qualified-name="Data Access Layer  .Model..REPO" data-source-line="43" id="ent0015"><rect fill="#FBFCFE" height="36.2969" rx="3" ry="3" style="stroke:#3C6E91;stroke-width:0.5;" width="207.0518" x="760.47" y="636.1869"/><text fill="#000000" font-family="'Segoe UI'" font-size="14" lengthAdjust="spacing" textLength="187.0518" x="770.47" y="659.182">Repositories / Django ORM</text></g><!--entity DB--><g class="entity" data-qualified-name="Data Layer.DB" data-source-line="47" id="ent0017"><path d="M782.96,782.4869 C782.96,772.4869 864.0025,772.4869 864.0025,772.4869 C864.0025,772.4869 945.045,772.4869 945.045,782.4869 L945.045,824.0806 C945.045,834.0806 864.0025,834.0806 864.0025,834.0806 C864.0025,834.0806 782.96,834.0806 782.96,824.0806 L782.96,782.4869" fill="#E9F5EA" style="stroke:#2E7D32;stroke-width:0.5;"/><path d="M782.96,782.4869 C782.96,792.4869 864.0025,792.4869 864.0025,792.4869 C864.0025,792.4869 945.045,792.4869 945.045,782.4869" fill="none" style="stroke:#2E7D32;stroke-width:0.5;"/><text fill="#000000" font-family="'Segoe UI'" font-size="14" lengthAdjust="spacing" textLength="80.7529" x="792.96" y="809.482">PostgreSQL</text><text fill="#000000" font-family="'Segoe UI'" font-size="14" lengthAdjust="spacing" textLength="142.085" x="792.96" y="825.7789">app data + sessions</text></g><!--link SPA to REST--><g class="link" data-entity-1="ent0002" data-entity-2="ent0004" data-link-type="dependency" data-source-line="51" id="lnk18"><path d="M306,115.9769 C306,153.5669 306,235.6469 306,261.9369" fill="none" id="SPA-to-REST" style="stroke:#5A6B7B;stroke-width:1;"/><polygon fill="#5A6B7B" points="306,266.9369,310,257.9369,306,261.9369,302,257.9369,306,266.9369" style="stroke:#5A6B7B;stroke-width:1;stroke-linejoin:miter;stroke-miterlimit:10;"/><text fill="#000000" font-family="'Segoe UI'" font-size="13" lengthAdjust="spacing" textLength="119.8755" x="316.2295" y="160.6638">HTTPS, REST/JSON</text><text fill="#000000" font-family="'Segoe UI'" font-size="13" lengthAdjust="spacing" textLength="138.3345" x="307" y="175.7966">(request &#8644; response)</text></g><!--link REST to CTRL--><g class="link" data-entity-1="ent0004" data-entity-2="ent0005" data-link-type="dependency" data-source-line="52" id="lnk19"><path d="M306,284.2369 C306,303.4569 306,349.1969 306,376.2269" fill="none" id="REST-to-CTRL" style="stroke:#5A6B7B;stroke-width:1;"/><polygon fill="#5A6B7B" points="306,381.2269,310,372.2269,306,376.2269,302,372.2269,306,381.2269" style="stroke:#5A6B7B;stroke-width:1;stroke-linejoin:miter;stroke-miterlimit:10;"/></g><!--link CTRL to AUTH--><g class="link" data-entity-1="ent0005" data-entity-2="ent0007" data-link-type="dependency" data-source-line="53" id="lnk20"><path d="M287.6,418.3369 C280.19,426.5669 272.37,436.9569 268,447.8869 C259.19,469.9269 258.4232,492.6825 259.2632,510.4025" fill="none" id="CTRL-to-AUTH" style="stroke:#5A6B7B;stroke-width:1;stroke-dasharray:7,7;"/><polygon fill="#5A6B7B" points="259.5,515.3969,263.0694,506.2176,259.2632,510.4025,255.0783,506.5964,259.5,515.3969" style="stroke:#5A6B7B;stroke-width:1;stroke-linejoin:miter;stroke-miterlimit:10;"/><text fill="#000000" font-family="'Segoe UI'" font-size="13" lengthAdjust="spacing" textLength="157.4473" x="269" y="460.9538">validate session + CSRF</text></g><!--link CTRL to SER--><g class="link" data-entity-1="ent0005" data-entity-2="ent0006" data-link-type="dependency" data-source-line="54" id="lnk21"><path d="M236.51,410.0369 C204.25,416.7869 166.6,428.3069 137,447.8869 C110.65,465.3169 92.2659,491.9318 80.9159,511.3218" fill="none" id="CTRL-to-SER" style="stroke:#5A6B7B;stroke-width:1;stroke-dasharray:7,7;"/><polygon fill="#5A6B7B" points="78.39,515.6369,86.3886,509.8904,80.9159,511.3218,79.4845,505.849,78.39,515.6369" style="stroke:#5A6B7B;stroke-width:1;stroke-linejoin:miter;stroke-miterlimit:10;"/><text fill="#000000" font-family="'Segoe UI'" font-size="13" lengthAdjust="spacing" textLength="116.3081" x="138" y="460.9538">(de)serialize JSON</text></g><!--link CTRL to S_AUTH--><g class="link" data-entity-1="ent0005" data-entity-2="ent0009" data-link-type="dependency" data-source-line="55" id="lnk22"><path d="M369.89,418.2769 C390.42,425.5869 412.6,435.3469 431,447.8869 C458.18,466.4069 479.3829,492.3733 493.1029,511.3733" fill="none" id="CTRL-to-S_AUTH" style="stroke:#5A6B7B;stroke-width:1;"/><polygon fill="#5A6B7B" points="496.03,515.4269,494.004,505.7886,493.1029,511.3733,487.5182,510.4721,496.03,515.4269" style="stroke:#5A6B7B;stroke-width:1;stroke-linejoin:miter;stroke-miterlimit:10;"/></g><!--link CTRL to S_HH--><g class="link" data-entity-1="ent0005" data-entity-2="ent0010" data-link-type="dependency" data-source-line="56" id="lnk23"><path d="M375.37,410.7169 C436.96,421.1569 528.5,440.6269 603,472.8869 C628.57,483.9569 650.8897,498.9672 668.7997,512.3972" fill="none" id="CTRL-to-S_HH" style="stroke:#5A6B7B;stroke-width:1;"/><polygon fill="#5A6B7B" points="672.8,515.3969,667.9992,506.7973,668.7997,512.3972,663.1998,513.1977,672.8,515.3969" style="stroke:#5A6B7B;stroke-width:1;stroke-linejoin:miter;stroke-miterlimit:10;"/></g><!--link CTRL to S_CHORE--><g class="link" data-entity-1="ent0005" data-entity-2="ent0011" data-link-type="dependency" data-source-line="57" id="lnk24"><path d="M375.3,400.0869 C471.77,401.5669 650.2,413.1569 788,472.8869 C811,482.8569 829.3936,498.113 843.7336,512.043" fill="none" id="CTRL-to-S_CHORE" style="stroke:#5A6B7B;stroke-width:1;"/><polygon fill="#5A6B7B" points="847.32,515.5269,843.6515,506.3867,843.7336,512.043,838.0773,512.125,847.32,515.5269" style="stroke:#5A6B7B;stroke-width:1;stroke-linejoin:miter;stroke-miterlimit:10;"/></g><!--link CTRL to S_ISSUE--><g class="link" data-entity-1="ent0005" data-entity-2="ent0012" data-link-type="dependency" data-source-line="58" id="lnk25"><path d="M375.59,403.4669 C518.53,409.8969 840.13,428.9269 940,472.8869 C962.58,482.8269 980.4057,498.0401 994.3257,511.9701" fill="none" id="CTRL-to-S_ISSUE" style="stroke:#5A6B7B;stroke-width:1;"/><polygon fill="#5A6B7B" points="997.86,515.5069,994.3278,506.3132,994.3257,511.9701,988.6689,511.968,997.86,515.5069" style="stroke:#5A6B7B;stroke-width:1;stroke-linejoin:miter;stroke-miterlimit:10;"/></g><!--link CTRL to S_RULE--><g class="link" data-entity-1="ent0005" data-entity-2="ent0013" data-link-type="dependency" data-source-line="59" id="lnk26"><path d="M375.31,404.7869 C487.59,411.6469 716.14,426.8969 909,447.8869 C988.86,456.5769 1014.68,440.0769 1088,472.8869 C1109.97,482.7269 1126.9779,497.8603 1140.2279,511.8203" fill="none" id="CTRL-to-S_RULE" style="stroke:#5A6B7B;stroke-width:1;"/><polygon fill="#5A6B7B" points="1143.67,515.4469,1140.3754,506.1654,1140.2279,511.8203,1134.573,511.6728,1143.67,515.4469" style="stroke:#5A6B7B;stroke-width:1;stroke-linejoin:miter;stroke-miterlimit:10;"/></g><!--link S_AUTH to REPO--><g class="link" data-entity-1="ent0009" data-entity-2="ent0015" data-link-type="dependency" data-source-line="60" id="lnk27"><path d="M545.07,552.5569 C562.19,560.3069 582.92,569.2369 602,576.1869 C666.71,599.7669 737.5013,620.1292 790.8213,634.4592" fill="none" id="S_AUTH-to-REPO" style="stroke:#5A6B7B;stroke-width:1;"/><polygon fill="#5A6B7B" points="795.65,635.7569,787.9966,629.558,790.8213,634.4592,785.9202,637.2839,795.65,635.7569" style="stroke:#5A6B7B;stroke-width:1;stroke-linejoin:miter;stroke-miterlimit:10;"/></g><!--link S_HH to REPO--><g class="link" data-entity-1="ent0010" data-entity-2="ent0015" data-link-type="dependency" data-source-line="61" id="lnk28"><path d="M719.94,552.4969 C751.89,574.8569 802.8638,610.5396 834.8638,632.9396" fill="none" id="S_HH-to-REPO" style="stroke:#5A6B7B;stroke-width:1;"/><polygon fill="#5A6B7B" points="838.96,635.8069,833.8808,627.3688,834.8638,632.9396,829.2931,633.9226,838.96,635.8069" style="stroke:#5A6B7B;stroke-width:1;stroke-linejoin:miter;stroke-miterlimit:10;"/></g><!--link S_CHORE to REPO--><g class="link" data-entity-1="ent0011" data-entity-2="ent0015" data-link-type="dependency" data-source-line="62" id="lnk29"><path d="M864,552.4969 C864,574.8569 864,608.4069 864,630.8069" fill="none" id="S_CHORE-to-REPO" style="stroke:#5A6B7B;stroke-width:1;"/><polygon fill="#5A6B7B" points="864,635.8069,868,626.8069,864,630.8069,860,626.8069,864,635.8069" style="stroke:#5A6B7B;stroke-width:1;stroke-linejoin:miter;stroke-miterlimit:10;"/></g><!--link S_ISSUE to REPO--><g class="link" data-entity-1="ent0012" data-entity-2="ent0015" data-link-type="dependency" data-source-line="63" id="lnk30"><path d="M991.87,552.4969 C963.51,574.8569 918.5564,610.3111 890.1464,632.7111" fill="none" id="S_ISSUE-to-REPO" style="stroke:#5A6B7B;stroke-width:1;"/><polygon fill="#5A6B7B" points="886.22,635.8069,895.7641,633.3756,890.1464,632.7111,890.8108,627.0934,886.22,635.8069" style="stroke:#5A6B7B;stroke-width:1;stroke-linejoin:miter;stroke-miterlimit:10;"/></g><!--link S_RULE to REPO--><g class="link" data-entity-1="ent0013" data-entity-2="ent0015" data-link-type="dependency" data-source-line="64" id="lnk31"><path d="M1131.67,552.5369 C1118.74,560.3869 1102.9,569.3769 1088,576.1869 C1034.5,600.6269 975.6623,620.3776 929.9123,634.3376" fill="none" id="S_RULE-to-REPO" style="stroke:#5A6B7B;stroke-width:1;"/><polygon fill="#5A6B7B" points="925.13,635.7969,934.9056,636.9961,929.9123,634.3376,932.5708,629.3444,925.13,635.7969" style="stroke:#5A6B7B;stroke-width:1;stroke-linejoin:miter;stroke-miterlimit:10;"/></g><!--link REPO to DB--><g class="link" data-entity-1="ent0015" data-entity-2="ent0017" data-link-type="dependency" data-source-line="65" id="lnk32"><path d="M864,672.7669 C864,697.2469 864,737.1569 864,767.1269" fill="none" id="REPO-to-DB" style="stroke:#5A6B7B;stroke-width:1;"/><polygon fill="#5A6B7B" points="864,772.1269,868,763.1269,864,767.1269,860,763.1269,864,772.1269" style="stroke:#5A6B7B;stroke-width:1;stroke-linejoin:miter;stroke-miterlimit:10;"/><text fill="#000000" font-family="'Segoe UI'" font-size="13" lengthAdjust="spacing" textLength="25.7271" x="865" y="717.5538">SQL</text></g><?plantuml-src lLLTRjj647xNAGRgGoKuJbeRjfCK3K1H9EH2ZbLIoaiJ55joB6wzuhAxInjk4I0F0Ng1tA97w5kEufDqPgaVKas1e3KA42HsPdPslc_d6phf54AiX8kLleNxTnzW8fV5uHHlK45Wia8wp5njiDVx4ku_lAC7KdUdPBc4mJLM3XJ5kqUm4Yuhq88h47BX1AnqZcgutlEldvwzbcKbZ5X1fbULBh5qV3w2eRf4kLJO2gb4TYsM-Cy1jX2vlkNYhuIoRO_HTPbdsfHeuBHbp_5ArCh5kdGlnGgXd-9I8opE-vyg3Nxh0OoqoT64Mca3Nno7fz6phzbAjItzAMjFF8h3EEgzRHz6nFqaBFuzpL5qDZu--bIQw5by4WMTD84n-dRjFWbEHsUZrktD35ggL3YfI_WMBbw5y4hYBGneoPUNAKdk_tnn-_UulXheTywVYZlY6px-mILy_BDFS9x6NyMH9-2714Nc89q5C9ZVLPXcHbPk-0Q4PID1tg6ASihTe0dfgenMYX8F3FvIetLGY3BdddrGM3jC_lGjbbq17b4Snq-ZCuz8bWxDbSXeInAbSmXcvw_BmMG-dwNm1BvBBryE-uoEdKm0isB9mzyKdVNGmtaoPMUAHWebVqNJsDCeONDGk-8vMBIM2SwqlfO81n2cIUp3WiLyqg5kL5jPKZWelPGPStR5Q-Ro6z26LUsCS1jjwvMGfVqC8dVqR4-O-XCyKLrYVDK4T669GW9s8pDiGFtewwM8YQuj5bhbU_w9zuQ5DhZd2IUNISJESslhVUTvcYwyCwdLlYzPJACEHMCUQ2BB6CD1isfwxOA7t0DBvRCezJK4JKNRnlFLD3rt51_79niLLTfAfur4xgNnppGKDLmc5s-QLfjTCjPkvkqLxV9iPrD_fgrR6ao_dxukHLKru_vWqtBMT_1ur26G_oxs_-Ff8IddyGE7Xo-yAE4vUBK-ygidh5WIy6RAtF_-dluwbdu55eSz7yyRlM3v1OyVl_3wepGt95qY3hTARIIwYoCv0yKDSXpQZTBzY6X2EF5Q7AtrfBDg1D0oD4tVClXERz9iG58xS1w0Zi6dQXjyghQ1KxMsyCklnYD2GRto5m00?></g></svg>